<mxfile host="app.diagrams.net" modified="2022-08-16T12:04:42.622Z" agent="5.0 (Macintosh; Intel Mac OS X 10_15_7) AppleWebKit/537.36 (KHTML, like Gecko) Chrome/104.0.5112.81 Safari/537.36" etag="kE5UXML884ftt7vSQQJ3" version="20.1.3" type="github">
  <diagram id="mbHIzJotMDjdFR7whDPK" name="Sayfa -1">
    <mxGraphModel dx="1892" dy="1300" grid="1" gridSize="10" guides="1" tooltips="1" connect="1" arrows="1" fold="1" page="1" pageScale="1" pageWidth="1169" pageHeight="827" math="0" shadow="0">
      <root>
        <mxCell id="0" />
        <mxCell id="1" parent="0" />
        <mxCell id="F4LPyLjov21-lMfaYfIT-2" value="" style="strokeWidth=1;shadow=0;dashed=0;align=center;html=1;shape=mxgraph.mockup.containers.browserWindow;rSize=0;strokeColor=#666666;strokeColor2=#008cff;strokeColor3=#c4c4c4;mainText=,;recursiveResize=0;" vertex="1" parent="1">
          <mxGeometry x="5" y="22" width="1160" height="3286" as="geometry" />
        </mxCell>
        <mxCell id="F4LPyLjov21-lMfaYfIT-3" value="Page 1" style="strokeWidth=1;shadow=0;dashed=0;align=center;html=1;shape=mxgraph.mockup.containers.anchor;fontSize=17;fontColor=#666666;align=left;" vertex="1" parent="F4LPyLjov21-lMfaYfIT-2">
          <mxGeometry x="60" y="12" width="110" height="26" as="geometry" />
        </mxCell>
        <mxCell id="F4LPyLjov21-lMfaYfIT-4" value="https://www.draw.io" style="strokeWidth=1;shadow=0;dashed=0;align=center;html=1;shape=mxgraph.mockup.containers.anchor;rSize=0;fontSize=17;fontColor=#666666;align=left;" vertex="1" parent="F4LPyLjov21-lMfaYfIT-2">
          <mxGeometry x="130" y="60" width="250" height="26" as="geometry" />
        </mxCell>
        <mxCell id="F4LPyLjov21-lMfaYfIT-5" value="LOGO" style="text;strokeColor=none;fillColor=none;html=1;fontSize=24;fontStyle=1;verticalAlign=middle;align=center;" vertex="1" parent="F4LPyLjov21-lMfaYfIT-2">
          <mxGeometry x="60" y="150" width="100" height="40" as="geometry" />
        </mxCell>
        <mxCell id="F4LPyLjov21-lMfaYfIT-6" value="Connect Wallet" style="text;strokeColor=none;fillColor=none;html=1;fontSize=24;fontStyle=1;verticalAlign=middle;align=center;" vertex="1" parent="F4LPyLjov21-lMfaYfIT-2">
          <mxGeometry x="955" y="150" width="100" height="40" as="geometry" />
        </mxCell>
        <mxCell id="F4LPyLjov21-lMfaYfIT-7" value="&lt;h1&gt;&lt;font style=&quot;font-size: 44px;&quot;&gt;Heading&lt;/font&gt;&lt;/h1&gt;&lt;p&gt;&lt;font style=&quot;font-size: 22px;&quot;&gt;Lorem ipsum dolor sit amet, consectetur adipisicing elit, sed do eiusmod tempor incididunt ut labore et dolore magna aliqua.&lt;/font&gt;&lt;/p&gt;" style="text;html=1;strokeColor=none;fillColor=none;spacing=5;spacingTop=-20;whiteSpace=wrap;overflow=hidden;rounded=0;align=center;" vertex="1" parent="F4LPyLjov21-lMfaYfIT-2">
          <mxGeometry x="302" y="386" width="555" height="240" as="geometry" />
        </mxCell>
        <mxCell id="F4LPyLjov21-lMfaYfIT-8" value="Enroll Now" style="strokeWidth=1;shadow=0;dashed=0;align=center;html=1;shape=mxgraph.mockup.buttons.button;strokeColor=#666666;fontColor=#ffffff;mainText=;buttonStyle=round;fontSize=17;fontStyle=1;fillColor=#008cff;whiteSpace=wrap;" vertex="1" parent="F4LPyLjov21-lMfaYfIT-2">
          <mxGeometry x="475" y="586" width="210" height="56.67" as="geometry" />
        </mxCell>
        <mxCell id="F4LPyLjov21-lMfaYfIT-9" value="" style="shape=mxgraph.mockup.containers.marginRect;rectMarginTop=10;strokeColor=#666666;strokeWidth=1;dashed=0;rounded=1;arcSize=5;recursiveResize=0;fontSize=22;" vertex="1" parent="F4LPyLjov21-lMfaYfIT-2">
          <mxGeometry x="130" y="746" width="900" height="324" as="geometry" />
        </mxCell>
        <mxCell id="F4LPyLjov21-lMfaYfIT-13" value="" style="shape=mxgraph.mockup.containers.marginRect;rectMarginTop=10;strokeColor=#666666;strokeWidth=1;dashed=0;rounded=1;arcSize=5;recursiveResize=0;fontSize=22;" vertex="1" parent="F4LPyLjov21-lMfaYfIT-2">
          <mxGeometry x="130" y="1088" width="900" height="662" as="geometry" />
        </mxCell>
        <mxCell id="F4LPyLjov21-lMfaYfIT-12" value="" style="shape=mxgraph.mockup.containers.marginRect;rectMarginTop=10;strokeColor=#666666;strokeWidth=1;dashed=0;rounded=1;arcSize=5;recursiveResize=0;fontSize=22;" vertex="1" parent="F4LPyLjov21-lMfaYfIT-2">
          <mxGeometry x="130" y="1766" width="900" height="480" as="geometry" />
        </mxCell>
        <mxCell id="F4LPyLjov21-lMfaYfIT-11" value="" style="shape=mxgraph.mockup.containers.marginRect;rectMarginTop=10;strokeColor=#666666;strokeWidth=1;dashed=0;rounded=1;arcSize=5;recursiveResize=0;fontSize=22;" vertex="1" parent="F4LPyLjov21-lMfaYfIT-2">
          <mxGeometry x="130" y="2286" width="900" height="844" as="geometry" />
        </mxCell>
        <mxCell id="F4LPyLjov21-lMfaYfIT-14" value="Partners" style="text;strokeColor=none;fillColor=none;html=1;fontSize=24;fontStyle=1;verticalAlign=middle;align=center;" vertex="1" parent="F4LPyLjov21-lMfaYfIT-2">
          <mxGeometry x="495" y="786" width="170" height="40" as="geometry" />
        </mxCell>
        <mxCell id="F4LPyLjov21-lMfaYfIT-15" value="" style="rounded=1;whiteSpace=wrap;html=1;fontSize=22;" vertex="1" parent="F4LPyLjov21-lMfaYfIT-2">
          <mxGeometry x="170" y="916" width="120" height="60" as="geometry" />
        </mxCell>
        <mxCell id="F4LPyLjov21-lMfaYfIT-18" value="" style="rounded=1;whiteSpace=wrap;html=1;fontSize=22;" vertex="1" parent="F4LPyLjov21-lMfaYfIT-2">
          <mxGeometry x="405" y="916" width="120" height="60" as="geometry" />
        </mxCell>
        <mxCell id="F4LPyLjov21-lMfaYfIT-17" value="" style="rounded=1;whiteSpace=wrap;html=1;fontSize=22;" vertex="1" parent="F4LPyLjov21-lMfaYfIT-2">
          <mxGeometry x="665" y="916" width="120" height="60" as="geometry" />
        </mxCell>
        <mxCell id="F4LPyLjov21-lMfaYfIT-16" value="" style="rounded=1;whiteSpace=wrap;html=1;fontSize=22;" vertex="1" parent="F4LPyLjov21-lMfaYfIT-2">
          <mxGeometry x="865" y="916" width="120" height="60" as="geometry" />
        </mxCell>
        <mxCell id="F4LPyLjov21-lMfaYfIT-20" value="What You&#39;ll Learn" style="text;strokeColor=none;fillColor=none;html=1;fontSize=24;fontStyle=1;verticalAlign=middle;align=center;" vertex="1" parent="F4LPyLjov21-lMfaYfIT-2">
          <mxGeometry x="465" y="1138" width="230" height="40" as="geometry" />
        </mxCell>
        <mxCell id="F4LPyLjov21-lMfaYfIT-21" value="&lt;h1&gt;&lt;font style=&quot;font-size: 24px;&quot;&gt;Week 1&amp;nbsp;&lt;/font&gt;&lt;/h1&gt;&lt;p&gt;&lt;font style=&quot;font-size: 18px;&quot;&gt;Lorem ipsum dolor sit amet, consectetur adipisicing elit, sed do eiusmod tempor incididunt ut labore et dolore magna aliqua.&lt;/font&gt;&lt;/p&gt;" style="text;html=1;strokeColor=none;fillColor=none;spacing=5;spacingTop=-20;whiteSpace=wrap;overflow=hidden;rounded=0;fontSize=22;" vertex="1" parent="F4LPyLjov21-lMfaYfIT-2">
          <mxGeometry x="170" y="1219" width="790" height="171" as="geometry" />
        </mxCell>
        <mxCell id="F4LPyLjov21-lMfaYfIT-24" value="&lt;h1&gt;&lt;font style=&quot;font-size: 24px;&quot;&gt;Week 2&amp;nbsp;&lt;/font&gt;&lt;/h1&gt;&lt;p&gt;&lt;font style=&quot;font-size: 18px;&quot;&gt;Lorem ipsum dolor sit amet, consectetur adipisicing elit, sed do eiusmod tempor incididunt ut labore et dolore magna aliqua.&lt;/font&gt;&lt;/p&gt;" style="text;html=1;strokeColor=none;fillColor=none;spacing=5;spacingTop=-20;whiteSpace=wrap;overflow=hidden;rounded=0;fontSize=22;" vertex="1" parent="F4LPyLjov21-lMfaYfIT-2">
          <mxGeometry x="170" y="1378" width="790" height="171" as="geometry" />
        </mxCell>
        <mxCell id="F4LPyLjov21-lMfaYfIT-23" value="&lt;h1&gt;&lt;font style=&quot;font-size: 24px;&quot;&gt;Week 3&amp;nbsp;&lt;/font&gt;&lt;/h1&gt;&lt;p&gt;&lt;font style=&quot;font-size: 18px;&quot;&gt;Lorem ipsum dolor sit amet, consectetur adipisicing elit, sed do eiusmod tempor incididunt ut labore et dolore magna aliqua.&lt;/font&gt;&lt;/p&gt;" style="text;html=1;strokeColor=none;fillColor=none;spacing=5;spacingTop=-20;whiteSpace=wrap;overflow=hidden;rounded=0;fontSize=22;" vertex="1" parent="F4LPyLjov21-lMfaYfIT-2">
          <mxGeometry x="170" y="1557.5" width="790" height="171" as="geometry" />
        </mxCell>
        <mxCell id="F4LPyLjov21-lMfaYfIT-26" value="&lt;h1&gt;&lt;span style=&quot;font-size: 24px;&quot;&gt;Who Is This Course For&lt;/span&gt;&lt;br&gt;&lt;/h1&gt;&lt;p&gt;Lorem ipsum dolor sit amet, consectetur adipisicing elit, sed do eiusmod tempor incididunt ut labore et dolore magna aliqua.&lt;/p&gt;" style="text;html=1;strokeColor=none;fillColor=none;spacing=5;spacingTop=-20;whiteSpace=wrap;overflow=hidden;rounded=0;fontSize=18;align=center;" vertex="1" parent="F4LPyLjov21-lMfaYfIT-2">
          <mxGeometry x="195" y="1851" width="315" height="310" as="geometry" />
        </mxCell>
        <mxCell id="F4LPyLjov21-lMfaYfIT-27" value="&lt;table border=&quot;1&quot; width=&quot;100%&quot; height=&quot;100%&quot; style=&quot;width:100%;height:100%;border-collapse:collapse;&quot;&gt;&lt;tr&gt;&lt;td align=&quot;center&quot;&gt;Value 1&lt;/td&gt;&lt;td align=&quot;center&quot;&gt;Value 2&lt;/td&gt;&lt;td align=&quot;center&quot;&gt;Value 3&lt;/td&gt;&lt;/tr&gt;&lt;tr&gt;&lt;td align=&quot;center&quot;&gt;Value 4&lt;/td&gt;&lt;td align=&quot;center&quot;&gt;Value 5&lt;/td&gt;&lt;td align=&quot;center&quot;&gt;Value 6&lt;/td&gt;&lt;/tr&gt;&lt;tr&gt;&lt;td align=&quot;center&quot;&gt;Value 7&lt;/td&gt;&lt;td align=&quot;center&quot;&gt;Value 8&lt;/td&gt;&lt;td align=&quot;center&quot;&gt;Value 9&lt;/td&gt;&lt;/tr&gt;&lt;/table&gt;" style="text;html=1;strokeColor=none;fillColor=none;overflow=fill;fontSize=18;spacingLeft=2;" vertex="1" parent="F4LPyLjov21-lMfaYfIT-2">
          <mxGeometry x="580" y="1838" width="388.29" height="302" as="geometry" />
        </mxCell>
        <mxCell id="F4LPyLjov21-lMfaYfIT-28" value="FAQ" style="text;strokeColor=none;fillColor=none;html=1;fontSize=24;fontStyle=1;verticalAlign=middle;align=center;" vertex="1" parent="F4LPyLjov21-lMfaYfIT-2">
          <mxGeometry x="530" y="2328" width="100" height="40" as="geometry" />
        </mxCell>
        <mxCell id="F4LPyLjov21-lMfaYfIT-31" value="&lt;h1 style=&quot;font-size: 26px;&quot;&gt;&lt;font style=&quot;font-size: 26px;&quot;&gt;Question&lt;/font&gt;&lt;/h1&gt;&lt;p style=&quot;&quot;&gt;&lt;font style=&quot;font-size: 16px;&quot;&gt;Lorem ipsum dolor sit amet, consectetur adipisicing elit, sed do eiusmod tempor incididunt ut labore et dolore magna&lt;/font&gt;&lt;font style=&quot;font-size: 26px;&quot;&gt;&amp;nbsp;&lt;/font&gt;&lt;/p&gt;" style="text;html=1;strokeColor=none;fillColor=none;spacing=5;spacingTop=-20;whiteSpace=wrap;overflow=hidden;rounded=0;fontSize=18;" vertex="1" parent="F4LPyLjov21-lMfaYfIT-2">
          <mxGeometry x="185" y="2568" width="720" height="120" as="geometry" />
        </mxCell>
        <mxCell id="F4LPyLjov21-lMfaYfIT-30" value="&lt;h1 style=&quot;font-size: 26px;&quot;&gt;&lt;font style=&quot;font-size: 26px;&quot;&gt;Question&lt;/font&gt;&lt;/h1&gt;&lt;p style=&quot;&quot;&gt;&lt;font style=&quot;font-size: 16px;&quot;&gt;Lorem ipsum dolor sit amet, consectetur adipisicing elit, sed do eiusmod tempor incididunt ut labore et dolore magna&lt;/font&gt;&lt;font style=&quot;font-size: 26px;&quot;&gt;&amp;nbsp;&lt;/font&gt;&lt;/p&gt;" style="text;html=1;strokeColor=none;fillColor=none;spacing=5;spacingTop=-20;whiteSpace=wrap;overflow=hidden;rounded=0;fontSize=18;" vertex="1" parent="F4LPyLjov21-lMfaYfIT-2">
          <mxGeometry x="185" y="2718" width="720" height="120" as="geometry" />
        </mxCell>
        <mxCell id="F4LPyLjov21-lMfaYfIT-33" value="&lt;h1 style=&quot;font-size: 26px;&quot;&gt;&lt;font style=&quot;font-size: 26px;&quot;&gt;Question&lt;/font&gt;&lt;/h1&gt;&lt;p style=&quot;&quot;&gt;&lt;font style=&quot;font-size: 16px;&quot;&gt;Lorem ipsum dolor sit amet, consectetur adipisicing elit, sed do eiusmod tempor incididunt ut labore et dolore magna&lt;/font&gt;&lt;font style=&quot;font-size: 26px;&quot;&gt;&amp;nbsp;&lt;/font&gt;&lt;/p&gt;" style="text;html=1;strokeColor=none;fillColor=none;spacing=5;spacingTop=-20;whiteSpace=wrap;overflow=hidden;rounded=0;fontSize=18;" vertex="1" parent="F4LPyLjov21-lMfaYfIT-2">
          <mxGeometry x="185" y="2858" width="720" height="120" as="geometry" />
        </mxCell>
        <mxCell id="F4LPyLjov21-lMfaYfIT-32" value="&lt;h1 style=&quot;font-size: 26px;&quot;&gt;&lt;font style=&quot;font-size: 26px;&quot;&gt;Question&lt;/font&gt;&lt;/h1&gt;&lt;p style=&quot;&quot;&gt;&lt;font style=&quot;font-size: 16px;&quot;&gt;Lorem ipsum dolor sit amet, consectetur adipisicing elit, sed do eiusmod tempor incididunt ut labore et dolore magna&lt;/font&gt;&lt;font style=&quot;font-size: 26px;&quot;&gt;&amp;nbsp;&lt;/font&gt;&lt;/p&gt;" style="text;html=1;strokeColor=none;fillColor=none;spacing=5;spacingTop=-20;whiteSpace=wrap;overflow=hidden;rounded=0;fontSize=18;" vertex="1" parent="F4LPyLjov21-lMfaYfIT-2">
          <mxGeometry x="185" y="2988" width="720" height="120" as="geometry" />
        </mxCell>
        <mxCell id="F4LPyLjov21-lMfaYfIT-34" value="&lt;span style=&quot;font-family: Mitr, sans-serif; text-align: start;&quot;&gt;&lt;font style=&quot;font-size: 18px;&quot;&gt;&amp;nbsp;2022 ÖZGÖKÇE Development, All Rights Reserved&lt;/font&gt;&lt;/span&gt;" style="text;html=1;strokeColor=none;fillColor=none;align=center;verticalAlign=middle;whiteSpace=wrap;rounded=0;fontSize=16;" vertex="1" parent="F4LPyLjov21-lMfaYfIT-2">
          <mxGeometry x="350" y="3198" width="430" height="30" as="geometry" />
        </mxCell>
        <mxCell id="F4LPyLjov21-lMfaYfIT-29" value="&lt;h1 style=&quot;font-size: 26px;&quot;&gt;&lt;font style=&quot;font-size: 26px;&quot;&gt;Question&lt;/font&gt;&lt;/h1&gt;&lt;p style=&quot;&quot;&gt;&lt;font style=&quot;font-size: 16px;&quot;&gt;Lorem ipsum dolor sit amet, consectetur adipisicing elit, sed do eiusmod tempor incididunt ut labore et dolore magna&lt;/font&gt;&lt;font style=&quot;font-size: 26px;&quot;&gt;&amp;nbsp;&lt;/font&gt;&lt;/p&gt;" style="text;html=1;strokeColor=none;fillColor=none;spacing=5;spacingTop=-20;whiteSpace=wrap;overflow=hidden;rounded=0;fontSize=18;" vertex="1" parent="1">
          <mxGeometry x="190" y="2450" width="720" height="120" as="geometry" />
        </mxCell>
      </root>
    </mxGraphModel>
  </diagram>
</mxfile>
